# xmcd
#
# Track frame offsets: 
#        150
#        21779
#        41415
#        67421
#        85120
#        111293
#        130046
#        159486
#        181731
#        203209
#        221673
#        243533
#        271376
#
# Disc length: 3957 seconds
#
# Revision: 0
# Processed by: cddbd v1.5.2PL0 Copyright (c) Steve Scherf et al.
# Submitted via: ExactAudioCopy v0.95a3
#
DISCID=b80f730d
DTITLE=Vienna Blues Affair - Bad Luck and Buddy Friends
DYEAR=2009
DGENRE=Blues
TTITLE0=Dawn in Virginia  
TTITLE1=Walking blues  
TTITLE2=A quitter never wins
TTITLE3=Gotta mind to travel
TTITLE4=Bloody murder  
TTITLE5=Talk to your daughter
TTITLE6=I found a woman
TTITLE7=Ship of fools
TTITLE8=Worried life blues
TTITLE9=Youngblood  
TTITLE10=Three handed woman
TTITLE11=My buddy buddy friends
TTITLE12=Crossroads
EXTD=
EXTT0=
EXTT1=
EXTT2=
EXTT3=
EXTT4=
EXTT5=
EXTT6=
EXTT7=
EXTT8=
EXTT9=
EXTT10=
EXTT11=
EXTT12=
PLAYORDER=
